<svg xmlns="http://www.w3.org/2000/svg" viewBox="-9.731 -33.320 822.950 576.565">
<!--
Source: https://commons.wikimedia.org/wiki/File:Motorland_Arag%C3%B3n_FIM.svg
Creator credit: See source page
License: CC BY-SA 3.0 (https://creativecommons.org/licenses/by-sa/3.0)
Modified: isolated circuit geometry, simplified styling, and cropped canvas.
-->
<g transform="translate(-30.142849,-115.6479)"><path d="M 310.12913 483.35639 L 731.33783 617.78469 C 756.48106 624.91857 779.81086 622.35171 793.18737
603.59398 C 800.78058 592.94612 809.38674 574.94851 803.3256 547.15769 C 801.95319 540.72912
797.27714 532.5761 787.96845 524.30054 L 559.39702 350.01483 C 542.71305 340.94499 534.86049
375.00567 511.98562 394.50316 C 479.85803 428.26592 447.38155 401.8297 393.29269 386.92702 C
373.02338 378.37385 371.30698 366.85768 367.5338 352.07675 L 351.37136 265.70871 C 349.25668
252.37519 343.89049 243.50915 334.70385 236.41429 L 301.36881 214.19093 C 293.58457 208.19801
278.52161 212.54771 275.10485 226.31276 L 267.02363 270.75947 C 265.84512 277.13255 263.15137
283.04971 258.9424 289.95237 C 247.73616 308.38978 228.56289 327.61702 196.18274 344.30055 C
175.32077 353.06889 170.21435 344.40125 166.18274 327.15769 L 141.18274 202.15769 C 139.38519
191.08374 144.16847 182.23249 152.37131 178.33052 L 166.00837 172.2696 C 176.58639 166.93348
174.52327 157.0493 163.48299 147.01579 C 127.37316 116.30318 57.503355 126.88728 54.38651
180.8559 C 57.98211 262.37215 86.648882 343.39969 139.98059 398.31479 C 147.55826 406.17666
152.53427 405.4202 160.95761 402.58438 L 200.35356 381.37118 C 222.6231 370.6007 239.34356
376.58757 251.36626 385.91686 L 300.35866 422.28236 C 309.40705 429.52179 315.95542 435.33264
311.97541 444.00064 L 303.38912 467.23414 C 302.52041 472.83075 298.37921 478.66111 310.12913
483.35639 z" fill="none" stroke="#1457d9" stroke-width="12.911" stroke-linecap="round" stroke-linejoin="round"/><path d="M 310.12913 483.35639 L 731.33783 617.78469 C 756.48106 624.91857 779.81086 622.35171 793.18737
603.59398 C 800.78058 592.94612 809.38674 574.94851 803.3256 547.15769 C 801.95319 540.72912
797.27714 532.5761 787.96845 524.30054 L 559.39702 350.01483 C 542.71305 340.94499 534.86049
375.00567 511.98562 394.50316 C 479.85803 428.26592 447.38155 401.8297 393.29269 386.92702 C
373.02338 378.37385 371.30698 366.85768 367.5338 352.07675 L 351.37136 265.70871 C 349.25668
252.37519 343.89049 243.50915 334.70385 236.41429 L 301.36881 214.19093 C 293.58457 208.19801
278.52161 212.54771 275.10485 226.31276 L 267.02363 270.75947 C 265.84512 277.13255 263.15137
283.04971 258.9424 289.95237 C 247.73616 308.38978 228.56289 327.61702 196.18274 344.30055 C
175.32077 353.06889 170.21435 344.40125 166.18274 327.15769 L 141.18274 202.15769 C 139.38519
191.08374 144.16847 182.23249 152.37131 178.33052 L 166.00837 172.2696 C 176.58639 166.93348
174.52327 157.0493 163.48299 147.01579 C 127.37316 116.30318 57.503355 126.88728 54.38651
180.8559 C 57.98211 262.37215 86.648882 343.39969 139.98059 398.31479 C 147.55826 406.17666
152.53427 405.4202 160.95761 402.58438 L 200.35356 381.37118 C 222.6231 370.6007 239.34356
376.58757 251.36626 385.91686 L 300.35866 422.28236 C 309.40705 429.52179 315.95542 435.33264
311.97541 444.00064 L 303.38912 467.23414 C 302.52041 472.83075 298.37921 478.66111 310.12913
483.35639 z" fill="none" stroke="#000000" stroke-width="6.795" stroke-linecap="round" stroke-linejoin="round"/></g>
</svg>
